%TF.GenerationSoftware,KiCad,Pcbnew,(6.0.4)*%
%TF.CreationDate,2022-09-24T19:54:14+02:00*%
%TF.ProjectId,MyKeeb,4d794b65-6562-42e6-9b69-6361645f7063,rev?*%
%TF.SameCoordinates,Original*%
%TF.FileFunction,Soldermask,Bot*%
%TF.FilePolarity,Negative*%
%FSLAX46Y46*%
G04 Gerber Fmt 4.6, Leading zero omitted, Abs format (unit mm)*
G04 Created by KiCad (PCBNEW (6.0.4)) date 2022-09-24 19:54:14*
%MOMM*%
%LPD*%
G01*
G04 APERTURE LIST*
%ADD10C,1.397000*%
%ADD11C,3.429000*%
%ADD12C,0.990600*%
%ADD13C,1.701800*%
%ADD14C,2.282000*%
%ADD15C,1.524000*%
%ADD16C,1.000000*%
%ADD17R,0.900000X0.900000*%
%ADD18R,0.900000X1.250000*%
%ADD19C,0.787400*%
G04 APERTURE END LIST*
D10*
%TO.C,Bat+1*%
X250105082Y-72891423D03*
%TD*%
D11*
%TO.C,SWr_12*%
X86248190Y-96525989D03*
D12*
X91468190Y-92325989D03*
D13*
X80748190Y-96525989D03*
D12*
X81028190Y-92325989D03*
D13*
X91748190Y-96525989D03*
D14*
X86248190Y-102425989D03*
X81248190Y-100325989D03*
%TD*%
D12*
%TO.C,SWr_16*%
X56883427Y-135812152D03*
D11*
X58750380Y-129377645D03*
D13*
X63255716Y-126222974D03*
X54245044Y-132532315D03*
D12*
X65435375Y-129824014D03*
D14*
X55366279Y-124544648D03*
X60666550Y-123396985D03*
%TD*%
D15*
%TO.C,U2*%
X57532540Y-75222100D03*
X57532540Y-77762100D03*
X57532540Y-80302100D03*
X57532540Y-82842100D03*
X57532540Y-85382100D03*
X57532540Y-87922100D03*
X57532540Y-90462100D03*
X57532540Y-93002100D03*
X57532540Y-95542100D03*
X57532540Y-98082100D03*
X57532540Y-100622100D03*
X57532540Y-103162100D03*
X42312540Y-103162100D03*
X42312540Y-100622100D03*
X42312540Y-98082100D03*
X42312540Y-95542100D03*
X42312540Y-93002100D03*
X42312540Y-90462100D03*
X42312540Y-87922100D03*
X42312540Y-85382100D03*
X42312540Y-82842100D03*
X42312540Y-80302100D03*
X42312540Y-77762100D03*
X42312540Y-75222100D03*
%TD*%
D12*
%TO.C,SWr_11*%
X63028190Y-90325989D03*
X73468190Y-90325989D03*
D13*
X62748190Y-94525989D03*
D11*
X68248190Y-94525989D03*
D13*
X73748190Y-94525989D03*
D14*
X68248190Y-100425989D03*
X63248190Y-98325989D03*
%TD*%
D13*
%TO.C,SWr_6*%
X62748190Y-77525989D03*
D12*
X73468190Y-73325989D03*
D11*
X68248190Y-77525989D03*
D13*
X73748190Y-77525989D03*
D12*
X63028190Y-73325989D03*
D14*
X68248190Y-83425989D03*
X63248190Y-81325989D03*
%TD*%
D12*
%TO.C,SW4*%
X188696912Y-59327032D03*
D13*
X188976912Y-63527032D03*
X177976912Y-63527032D03*
D11*
X183476912Y-63527032D03*
D12*
X178256912Y-59327032D03*
D14*
X183476912Y-69427032D03*
X178476912Y-67327032D03*
%TD*%
D16*
%TO.C,SW_POWERR1*%
X48446220Y-73961340D03*
X51446220Y-73961340D03*
D17*
X53646220Y-72861340D03*
X53646220Y-75061340D03*
X46246220Y-75061340D03*
X46246220Y-72861340D03*
D18*
X47696220Y-76036340D03*
X50696220Y-76036340D03*
X52196220Y-76036340D03*
%TD*%
D19*
%TO.C,H10*%
X149613877Y-71918095D03*
X149613877Y-69378095D03*
X149613877Y-73188095D03*
X149613877Y-74458095D03*
X149613877Y-70648095D03*
%TD*%
D13*
%TO.C,SW10*%
X159976912Y-91527032D03*
X170976912Y-91527032D03*
D12*
X160256912Y-87327032D03*
D11*
X165476912Y-91527032D03*
D12*
X170696912Y-87327032D03*
D14*
X165476912Y-97427032D03*
X160476912Y-95327032D03*
%TD*%
D11*
%TO.C,SWr_13*%
X104248190Y-90525989D03*
D13*
X98748190Y-90525989D03*
X109748190Y-90525989D03*
D12*
X99028190Y-86325989D03*
X109468190Y-86325989D03*
D14*
X104248190Y-96425989D03*
X99248190Y-94325989D03*
%TD*%
D19*
%TO.C,H1*%
X149612727Y-110448095D03*
X149612727Y-111718095D03*
X149612727Y-114258095D03*
X149612727Y-109178095D03*
X149612727Y-112988095D03*
%TD*%
D12*
%TO.C,SW18*%
X204975006Y-117691084D03*
D13*
X205428582Y-113506270D03*
D12*
X215256399Y-119503971D03*
D11*
X210845024Y-114461335D03*
D13*
X216261467Y-115416400D03*
D14*
X211869549Y-108650969D03*
X216428926Y-111587307D03*
%TD*%
D13*
%TO.C,SWr_4*%
X127748190Y-63525989D03*
D11*
X122248190Y-63525989D03*
D13*
X116748190Y-63525989D03*
D12*
X127468190Y-59325989D03*
X117028190Y-59325989D03*
D14*
X122248190Y-69425989D03*
X117248190Y-67325989D03*
%TD*%
D19*
%TO.C,H2*%
X156113877Y-114268095D03*
X156113877Y-110458095D03*
X156113877Y-112998095D03*
X156113877Y-111728095D03*
X156113877Y-109188095D03*
%TD*%
D12*
%TO.C,SW9*%
X178256912Y-76327032D03*
D11*
X183476912Y-80527032D03*
D13*
X177976912Y-80527032D03*
X188976912Y-80527032D03*
D12*
X188696912Y-76327032D03*
D14*
X183476912Y-86427032D03*
X178476912Y-84327032D03*
%TD*%
D13*
%TO.C,SWr_15*%
X145748190Y-108525989D03*
D12*
X135028190Y-104325989D03*
X145468190Y-104325989D03*
D13*
X134748190Y-108525989D03*
D11*
X140248190Y-108525989D03*
D14*
X140248190Y-114425989D03*
X135248190Y-112325989D03*
%TD*%
D10*
%TO.C,BatGND2*%
X55653940Y-72900540D03*
%TD*%
D13*
%TO.C,SWr_3*%
X109748190Y-56525989D03*
X98748190Y-56525989D03*
D12*
X99028190Y-52325989D03*
X109468190Y-52325989D03*
D11*
X104248190Y-56525989D03*
D14*
X104248190Y-62425989D03*
X99248190Y-60325989D03*
%TD*%
D13*
%TO.C,SW11*%
X231976912Y-94633552D03*
D11*
X237476912Y-94633552D03*
D13*
X242976912Y-94633552D03*
D12*
X242696912Y-90433552D03*
X232256912Y-90433552D03*
D14*
X237476912Y-100533552D03*
X232476912Y-98433552D03*
%TD*%
D15*
%TO.C,U1*%
X263447782Y-75223143D03*
X263447782Y-77763143D03*
X263447782Y-80303143D03*
X263447782Y-82843143D03*
X263447782Y-85383143D03*
X263447782Y-87923143D03*
X263447782Y-90463143D03*
X263447782Y-93003143D03*
X263447782Y-95543143D03*
X263447782Y-98083143D03*
X263447782Y-100623143D03*
X263447782Y-103163143D03*
X248227782Y-103163143D03*
X248227782Y-100623143D03*
X248227782Y-98083143D03*
X248227782Y-95543143D03*
X248227782Y-93003143D03*
X248227782Y-90463143D03*
X248227782Y-87923143D03*
X248227782Y-85383143D03*
X248227782Y-82843143D03*
X248227782Y-80303143D03*
X248227782Y-77763143D03*
X248227782Y-75223143D03*
%TD*%
D13*
%TO.C,SWr_7*%
X91748190Y-79525989D03*
D12*
X91468190Y-75325989D03*
D11*
X86248190Y-79525989D03*
D13*
X80748190Y-79525989D03*
D12*
X81028190Y-75325989D03*
D14*
X86248190Y-85425989D03*
X81248190Y-83325989D03*
%TD*%
D12*
%TO.C,SW1*%
X242696912Y-56327032D03*
D11*
X237476912Y-60527032D03*
D13*
X242976912Y-60527032D03*
D12*
X232256912Y-56327032D03*
D13*
X231976912Y-60527032D03*
D14*
X237476912Y-66427032D03*
X232476912Y-64327032D03*
%TD*%
D12*
%TO.C,SWr_14*%
X127468190Y-93325989D03*
D13*
X116748190Y-97525989D03*
D12*
X117028190Y-93325989D03*
D11*
X122248190Y-97525989D03*
D13*
X127748190Y-97525989D03*
D14*
X122248190Y-103425989D03*
X117248190Y-101325989D03*
%TD*%
D12*
%TO.C,SW6*%
X242696912Y-73327032D03*
D13*
X231976912Y-77527032D03*
D12*
X232256912Y-73327032D03*
D13*
X242976912Y-77527032D03*
D11*
X237476912Y-77527032D03*
D14*
X237476912Y-83427032D03*
X232476912Y-81327032D03*
%TD*%
D12*
%TO.C,SW5*%
X160256912Y-70327032D03*
D13*
X159976912Y-74527032D03*
X170976912Y-74527032D03*
D12*
X170696912Y-70327032D03*
D11*
X165476912Y-74527032D03*
D14*
X165476912Y-80427032D03*
X160476912Y-78327032D03*
%TD*%
D12*
%TO.C,SWr_9*%
X127468190Y-76325989D03*
D13*
X127748190Y-80525989D03*
D12*
X117028190Y-76325989D03*
D11*
X122248190Y-80525989D03*
D13*
X116748190Y-80525989D03*
D14*
X122248190Y-86425989D03*
X117248190Y-84325989D03*
%TD*%
D11*
%TO.C,SW7*%
X219476912Y-79527032D03*
D12*
X214256912Y-75327032D03*
D13*
X213976912Y-79527032D03*
X224976912Y-79527032D03*
D12*
X224696912Y-75327032D03*
D14*
X219476912Y-85427032D03*
X214476912Y-83327032D03*
%TD*%
D11*
%TO.C,SWr_8*%
X104248190Y-73525989D03*
D13*
X98748190Y-73525989D03*
D12*
X99028190Y-69325989D03*
X109468190Y-69325989D03*
D13*
X109748190Y-73525989D03*
D14*
X104248190Y-79425989D03*
X99248190Y-77325989D03*
%TD*%
D13*
%TO.C,SWr_17*%
X81108749Y-117846980D03*
D11*
X76027411Y-119951739D03*
D12*
X82457333Y-121834425D03*
X72812031Y-125829640D03*
D13*
X70946074Y-122056498D03*
D14*
X73769579Y-114500850D03*
X79192612Y-114527580D03*
%TD*%
D10*
%TO.C,Bat+r1*%
X44221400Y-72900540D03*
%TD*%
D13*
%TO.C,SW15*%
X170976912Y-108527032D03*
D12*
X160256912Y-104327032D03*
X170696912Y-104327032D03*
D13*
X159976912Y-108527032D03*
D11*
X165476912Y-108527032D03*
D14*
X165476912Y-114427032D03*
X160476912Y-112327032D03*
%TD*%
D13*
%TO.C,SWr_10*%
X134748190Y-91525989D03*
X145748190Y-91525989D03*
D12*
X135028190Y-87325989D03*
D11*
X140248190Y-91525989D03*
D12*
X145468190Y-87325989D03*
D14*
X140248190Y-97425989D03*
X135248190Y-95325989D03*
%TD*%
D13*
%TO.C,SW2*%
X213976912Y-62527032D03*
D12*
X224696912Y-58327032D03*
X214256912Y-58327032D03*
D13*
X224976912Y-62527032D03*
D11*
X219476912Y-62527032D03*
D14*
X219476912Y-68427032D03*
X214476912Y-66327032D03*
%TD*%
D11*
%TO.C,SWr_5*%
X140248190Y-74525989D03*
D13*
X145748190Y-74525989D03*
X134748190Y-74525989D03*
D12*
X145468190Y-70325989D03*
X135028190Y-70325989D03*
D14*
X140248190Y-80425989D03*
X135248190Y-78325989D03*
%TD*%
D13*
%TO.C,SWr_1*%
X62748190Y-60525989D03*
D12*
X73468190Y-56325989D03*
D11*
X68248190Y-60525989D03*
D13*
X73748190Y-60525989D03*
D12*
X63028190Y-56325989D03*
D14*
X68248190Y-66425989D03*
X63248190Y-64325989D03*
%TD*%
D12*
%TO.C,SWr_2*%
X91468190Y-58325989D03*
D11*
X86248190Y-62525989D03*
D13*
X80748190Y-62525989D03*
D12*
X81028190Y-58325989D03*
D13*
X91748190Y-62525989D03*
D14*
X86248190Y-68425989D03*
X81248190Y-66325989D03*
%TD*%
D13*
%TO.C,SW13*%
X195976912Y-90527032D03*
X206976912Y-90527032D03*
D11*
X201476912Y-90527032D03*
D12*
X196256912Y-86327032D03*
X206696912Y-86327032D03*
D14*
X201476912Y-96427032D03*
X196476912Y-94327032D03*
%TD*%
D11*
%TO.C,SW3*%
X201476912Y-56527032D03*
D13*
X195976912Y-56527032D03*
X206976912Y-56527032D03*
D12*
X206696912Y-52327032D03*
X196256912Y-52327032D03*
D14*
X201476912Y-62427032D03*
X196476912Y-60327032D03*
%TD*%
D16*
%TO.C,SW_POWER1*%
X257322982Y-73945523D03*
X254322982Y-73945523D03*
D17*
X259522982Y-75045523D03*
X252122982Y-75045523D03*
X252122982Y-72845523D03*
X259522982Y-72845523D03*
D18*
X253572982Y-76020523D03*
X256572982Y-76020523D03*
X258072982Y-76020523D03*
%TD*%
D13*
%TO.C,SWr_18*%
X89498354Y-115415347D03*
D12*
X100784815Y-117690031D03*
D11*
X94914797Y-114460282D03*
D13*
X100331239Y-113505217D03*
D12*
X90503422Y-119502918D03*
D14*
X93890272Y-108649916D03*
X99178972Y-109849771D03*
%TD*%
D11*
%TO.C,SW14*%
X183476912Y-97527032D03*
D12*
X178256912Y-93327032D03*
X188696912Y-93327032D03*
D13*
X177976912Y-97527032D03*
X188976912Y-97527032D03*
D14*
X183476912Y-103427032D03*
X178476912Y-101327032D03*
%TD*%
D12*
%TO.C,SW8*%
X196256912Y-69327032D03*
D13*
X195976912Y-73527032D03*
X206976912Y-73527032D03*
D12*
X206696912Y-69327032D03*
D11*
X201476912Y-73527032D03*
D14*
X201476912Y-79427032D03*
X196476912Y-77327032D03*
%TD*%
D19*
%TO.C,H9*%
X156122727Y-69368095D03*
X156122727Y-74448095D03*
X156122727Y-71908095D03*
X156122727Y-70638095D03*
X156122727Y-73178095D03*
%TD*%
D12*
%TO.C,SW16*%
X240324436Y-129825092D03*
D11*
X247009431Y-129378722D03*
D13*
X242504095Y-126224052D03*
D12*
X248876384Y-135813230D03*
D13*
X251514767Y-132533393D03*
D14*
X250393532Y-124545725D03*
X253284782Y-129133827D03*
%TD*%
D12*
%TO.C,SW17*%
X223302484Y-121835491D03*
D13*
X224651069Y-117848046D03*
D11*
X229732406Y-119952805D03*
D12*
X232947787Y-125830706D03*
D13*
X234813743Y-122057564D03*
D14*
X231990238Y-114501916D03*
X235806001Y-118355480D03*
%TD*%
D11*
%TO.C,SW12*%
X219476912Y-96527032D03*
D12*
X214256912Y-92327032D03*
D13*
X224976912Y-96527032D03*
X213976912Y-96527032D03*
D12*
X224696912Y-92327032D03*
D14*
X219476912Y-102427032D03*
X214476912Y-100327032D03*
%TD*%
D10*
%TO.C,BatGND1*%
X261539422Y-72899043D03*
%TD*%
M02*
