%TF.GenerationSoftware,KiCad,Pcbnew,(6.0.4)*%
%TF.CreationDate,2022-09-24T19:54:14+02:00*%
%TF.ProjectId,MyKeeb,4d794b65-6562-42e6-9b69-6361645f7063,rev?*%
%TF.SameCoordinates,Original*%
%TF.FileFunction,Profile,NP*%
%FSLAX46Y46*%
G04 Gerber Fmt 4.6, Leading zero omitted, Abs format (unit mm)*
G04 Created by KiCad (PCBNEW (6.0.4)) date 2022-09-24 19:54:14*
%MOMM*%
%LPD*%
G01*
G04 APERTURE LIST*
%TA.AperFunction,Profile*%
%ADD10C,0.120000*%
%TD*%
%ADD11C,0.120000*%
G04 APERTURE END LIST*
D10*
X234788995Y-131216400D02*
X249146664Y-141269720D01*
X41385560Y-96057720D02*
X41373560Y-103677720D01*
D11*
X149605945Y-74914050D02*
X149729059Y-74935777D01*
X149833706Y-74995814D01*
X149920792Y-75101438D01*
X149959883Y-75217583D01*
X149964009Y-75272113D01*
D10*
X192481841Y-54662549D02*
X192483669Y-48390331D01*
D11*
X149964009Y-75272113D02*
X149964009Y-108369749D01*
X156483335Y-108369749D02*
X156483335Y-75272113D01*
X155767208Y-108369749D02*
X155767208Y-75272113D01*
X155767208Y-75272113D02*
X155788935Y-75148998D01*
X155848972Y-75044351D01*
X155954596Y-74957266D01*
X156070741Y-74918175D01*
X156125271Y-74914050D01*
D10*
X77647800Y-54025800D02*
X94888529Y-54024886D01*
D11*
X154882387Y-116887230D02*
X155017503Y-116877007D01*
X155146222Y-116847341D01*
X155267038Y-116799739D01*
X155378445Y-116735704D01*
X155478940Y-116656743D01*
X155567016Y-116564360D01*
X155641169Y-116460060D01*
X155699894Y-116345349D01*
X155741684Y-116221732D01*
X155765036Y-116090714D01*
X155769617Y-116000000D01*
D10*
X192884075Y-48026320D02*
X210112104Y-48025757D01*
X56584531Y-141269720D02*
X70942200Y-131216400D01*
X264345580Y-72585720D02*
G75*
G03*
X263595635Y-71835720I-749980J20D01*
G01*
X130852117Y-106026574D02*
X102990171Y-106028134D01*
D11*
X149247860Y-75272113D02*
X149269587Y-75148998D01*
X149329624Y-75044351D01*
X149435248Y-74957266D01*
X149551393Y-74918175D01*
X149605923Y-74914050D01*
X149247860Y-108369749D02*
X149247860Y-75272113D01*
D10*
X41385560Y-72585720D02*
X41385560Y-80563720D01*
X156482689Y-116625577D02*
X156483335Y-115086629D01*
X105184853Y-120910329D02*
X102626160Y-106428540D01*
D11*
X149605945Y-114728566D02*
X149729059Y-114750293D01*
X149833706Y-114810330D01*
X149920792Y-114915954D01*
X149959883Y-115032099D01*
X149964009Y-115086629D01*
D10*
X263595635Y-71835720D02*
X246842086Y-71835366D01*
D11*
X154877568Y-66112770D02*
X150848830Y-66112770D01*
X149964009Y-108369749D02*
X149942281Y-108492863D01*
X149882244Y-108597510D01*
X149776619Y-108684596D01*
X149660474Y-108723687D01*
X149605945Y-108727813D01*
D10*
X46723300Y-127891540D02*
X56047749Y-141201203D01*
X210476115Y-48426163D02*
X210478655Y-53624480D01*
X59253120Y-71434960D02*
X59255660Y-52425600D01*
X87551260Y-124378720D02*
X104853740Y-121338340D01*
D11*
X150853649Y-116887230D02*
X154882387Y-116887230D01*
D10*
X246475535Y-52425600D02*
X246478075Y-71434960D01*
X203105035Y-106428540D02*
X200546342Y-120910329D01*
X113247526Y-48390331D02*
X113249354Y-54662549D01*
X95619091Y-48025757D02*
X112847120Y-48026320D01*
D11*
X149605923Y-68913296D02*
X149482808Y-68891568D01*
X149378161Y-68831531D01*
X149291076Y-68725907D01*
X149251985Y-68609762D01*
X149247860Y-68555233D01*
X156483335Y-68555233D02*
X156461607Y-68678347D01*
X156401570Y-68782994D01*
X156295946Y-68870079D01*
X156179801Y-68909170D01*
X156125272Y-68913296D01*
X156125272Y-74914050D02*
X156248386Y-74935777D01*
X156353033Y-74995814D01*
X156440118Y-75101438D01*
X156479209Y-75217583D01*
X156483335Y-75272113D01*
X156125272Y-114728566D02*
X156248386Y-114750293D01*
X156353033Y-114810330D01*
X156440118Y-114915954D01*
X156479209Y-115032099D01*
X156483335Y-115086629D01*
D10*
X95252540Y-53624480D02*
X95255080Y-48426163D01*
X264345635Y-80563720D02*
X264345635Y-72585720D01*
D11*
X149247860Y-115086629D02*
X149269587Y-114963514D01*
X149329624Y-114858867D01*
X149435248Y-114771782D01*
X149551393Y-114732691D01*
X149605923Y-114728566D01*
D10*
X131247443Y-55389926D02*
X131245254Y-65660749D01*
X41385560Y-88691720D02*
X41385560Y-96057720D01*
X149966418Y-116000000D02*
X149964009Y-115086629D01*
X210842666Y-54024886D02*
X228083395Y-54025800D01*
X228883495Y-52026820D02*
X246111524Y-52025194D01*
X264345635Y-88691720D02*
X264345635Y-80563720D01*
X149246946Y-66388771D02*
X149247860Y-68555233D01*
X228483801Y-53661789D02*
X228483089Y-52390831D01*
X174081932Y-117026066D02*
X156846700Y-117025983D01*
X200877455Y-121338340D02*
X218179935Y-124378720D01*
X58889109Y-71835366D02*
X42135560Y-71835720D01*
X149964009Y-68555233D02*
X149961600Y-67000000D01*
D11*
X156125271Y-68913296D02*
X156002156Y-68891568D01*
X155897509Y-68831531D01*
X155810424Y-68725907D01*
X155771333Y-68609762D01*
X155767208Y-68555233D01*
D10*
X149247860Y-115086629D02*
X149248506Y-116625577D01*
X155767208Y-115086629D02*
X155769617Y-116000000D01*
D11*
X155767208Y-115086629D02*
X155788935Y-114963514D01*
X155848972Y-114858867D01*
X155954596Y-114771782D01*
X156070741Y-114732691D01*
X156125271Y-114728566D01*
D10*
X264357635Y-103677720D02*
X264345635Y-96057720D01*
X202741024Y-106028134D02*
X174879078Y-106026574D01*
X218179935Y-124378720D02*
X234788995Y-131216400D01*
D11*
X156483335Y-108369749D02*
X156461607Y-108492863D01*
X156401570Y-108597510D01*
X156295946Y-108684596D01*
X156179801Y-108723687D01*
X156125272Y-108727813D01*
X149605923Y-108727813D02*
X149482808Y-108706085D01*
X149378161Y-108646048D01*
X149291076Y-108540423D01*
X149251985Y-108424278D01*
X149247860Y-108369749D01*
D10*
X77248106Y-52390831D02*
X77247394Y-53661789D01*
X264345635Y-96057720D02*
X264345635Y-88691720D01*
X259007895Y-127891540D02*
X264357635Y-103677720D01*
D11*
X150848830Y-66112770D02*
X150713713Y-66122992D01*
X150584994Y-66152658D01*
X150464178Y-66200260D01*
X150352771Y-66264295D01*
X150252276Y-66343256D01*
X150164200Y-66435639D01*
X150090047Y-66539939D01*
X150031322Y-66654650D01*
X149989532Y-66778267D01*
X149966180Y-66909285D01*
X149961600Y-67000000D01*
D10*
X70942200Y-131216400D02*
X87551260Y-124378720D01*
X174485941Y-65660749D02*
X174483752Y-55389926D01*
X156884655Y-66024760D02*
X174085535Y-66024760D01*
X113649760Y-55026560D02*
X130847037Y-55025915D01*
X148884495Y-117025983D02*
X131649263Y-117026066D01*
X249683446Y-141201203D02*
X259007895Y-127891540D01*
D11*
X155764799Y-67000000D02*
X155754576Y-66864883D01*
X155724910Y-66736165D01*
X155677308Y-66615349D01*
X155613273Y-66503941D01*
X155534312Y-66403446D01*
X155441929Y-66315370D01*
X155337629Y-66241217D01*
X155222918Y-66182493D01*
X155099300Y-66140702D01*
X154968282Y-66117350D01*
X154877568Y-66112770D01*
D10*
X41373560Y-103677720D02*
X46723300Y-127891540D01*
X42135560Y-71835660D02*
G75*
G03*
X41385560Y-72585720I40J-750040D01*
G01*
D11*
X149964009Y-68555233D02*
X149942281Y-68678347D01*
X149882244Y-68782994D01*
X149776619Y-68870079D01*
X149660474Y-68909170D01*
X149605945Y-68913296D01*
D10*
X155764799Y-67000000D02*
X155767208Y-68555233D01*
X131645660Y-66024760D02*
X148846540Y-66024760D01*
X41385560Y-80563720D02*
X41385560Y-88691720D01*
D11*
X156125271Y-108727813D02*
X156002156Y-108706085D01*
X155897509Y-108646048D01*
X155810424Y-108540423D01*
X155771333Y-108424278D01*
X155767208Y-108369749D01*
X149966418Y-116000000D02*
X149976640Y-116135116D01*
X150006306Y-116263834D01*
X150053908Y-116384650D01*
X150117943Y-116496058D01*
X150196904Y-116596553D01*
X150289287Y-116684629D01*
X150393587Y-116758782D01*
X150508298Y-116817506D01*
X150631916Y-116859297D01*
X150762934Y-116882649D01*
X150853649Y-116887230D01*
D10*
X59619671Y-52025194D02*
X76847700Y-52026820D01*
X174478672Y-106390585D02*
X174482338Y-116662055D01*
X174884158Y-55025915D02*
X192081435Y-55026560D01*
X156483335Y-68555233D02*
X156484249Y-66388771D01*
X131248857Y-116662055D02*
X131252523Y-106390585D01*
%TO.C,*%
X131245254Y-65660749D02*
G75*
G03*
X131645660Y-66024760I370819J5669D01*
G01*
X148884495Y-117025983D02*
G75*
G03*
X149248506Y-116625577I-5669J370819D01*
G01*
X102990171Y-106028134D02*
G75*
G03*
X102626160Y-106428540I5669J-370819D01*
G01*
X77248106Y-52390831D02*
G75*
G03*
X76847700Y-52026820I-370819J-5669D01*
G01*
X77247394Y-53661789D02*
G75*
G03*
X77647800Y-54025800I370819J5669D01*
G01*
X113249354Y-54662549D02*
G75*
G03*
X113649760Y-55026560I370819J5669D01*
G01*
X56047750Y-141201203D02*
G75*
G03*
X56584531Y-141269720I300505J217337D01*
G01*
X95619091Y-48025757D02*
G75*
G03*
X95255080Y-48426163I5669J-370819D01*
G01*
X149246946Y-66388771D02*
G75*
G03*
X148846540Y-66024760I-370819J-5669D01*
G01*
X131247443Y-55389926D02*
G75*
G03*
X130847037Y-55025915I-370819J-5669D01*
G01*
X113247526Y-48390331D02*
G75*
G03*
X112847120Y-48026320I-370819J-5669D01*
G01*
X131248857Y-116662055D02*
G75*
G03*
X131649263Y-117026066I370819J5669D01*
G01*
X94888529Y-54024886D02*
G75*
G03*
X95252540Y-53624480I-5669J370819D01*
G01*
X59619671Y-52025194D02*
G75*
G03*
X59255660Y-52425600I5669J-370819D01*
G01*
X58889109Y-71835366D02*
G75*
G03*
X59253120Y-71434960I-5669J370819D01*
G01*
X200546343Y-120910329D02*
G75*
G03*
X200877455Y-121338340I366169J-58810D01*
G01*
X131252523Y-106390585D02*
G75*
G03*
X130852117Y-106026574I-370819J-5669D01*
G01*
X174081932Y-117026066D02*
G75*
G03*
X174482338Y-116662055I29587J369680D01*
G01*
X210478655Y-53624480D02*
G75*
G03*
X210842666Y-54024886I369680J-29587D01*
G01*
X210476115Y-48426163D02*
G75*
G03*
X210112104Y-48025757I-369680J29587D01*
G01*
X228083395Y-54025800D02*
G75*
G03*
X228483801Y-53661789I29587J369680D01*
G01*
X249146664Y-141269721D02*
G75*
G03*
X249683446Y-141201203I236276J285855D01*
G01*
X203105035Y-106428540D02*
G75*
G03*
X202741024Y-106028134I-369680J29587D01*
G01*
X246478075Y-71434960D02*
G75*
G03*
X246842086Y-71835366I369680J-29587D01*
G01*
X228883495Y-52026820D02*
G75*
G03*
X228483089Y-52390831I-29587J-369680D01*
G01*
X192081435Y-55026560D02*
G75*
G03*
X192481841Y-54662549I29587J369680D01*
G01*
X174879078Y-106026574D02*
G75*
G03*
X174478672Y-106390585I-29587J-369680D01*
G01*
X246475535Y-52425600D02*
G75*
G03*
X246111524Y-52025194I-369680J29587D01*
G01*
X104853740Y-121338341D02*
G75*
G03*
X105184853Y-120910329I-35057J369202D01*
G01*
X192884075Y-48026320D02*
G75*
G03*
X192483669Y-48390331I-29587J-369680D01*
G01*
X156482689Y-116625577D02*
G75*
G03*
X156846700Y-117025983I369680J-29587D01*
G01*
X174085535Y-66024760D02*
G75*
G03*
X174485941Y-65660749I29587J369680D01*
G01*
X174884158Y-55025915D02*
G75*
G03*
X174483752Y-55389926I-29587J-369680D01*
G01*
X156884655Y-66024760D02*
G75*
G03*
X156484249Y-66388771I-29587J-369680D01*
G01*
%TD*%
M02*
