M48
; DRILL file {KiCad (6.0.4)} date Sat Sep 24 19:53:36 2022
; FORMAT={-:-/ absolute / metric / decimal}
; #@! TF.CreationDate,2022-09-24T19:53:36+02:00
; #@! TF.GenerationSoftware,Kicad,Pcbnew,(6.0.4)
; #@! TF.FileFunction,NonPlated,1,2,NPTH
FMAT,2
METRIC
; #@! TA.AperFunction,NonPlated,NPTH,ComponentDrill
T1C0.787
; #@! TA.AperFunction,NonPlated,NPTH,ComponentDrill
T2C0.900
; #@! TA.AperFunction,NonPlated,NPTH,ComponentDrill
T3C0.991
; #@! TA.AperFunction,NonPlated,NPTH,ComponentDrill
T4C1.702
; #@! TA.AperFunction,NonPlated,NPTH,ComponentDrill
T5C3.429
%
G90
G05
T1
X149.613Y-109.178
X149.613Y-110.448
X149.613Y-111.718
X149.613Y-112.988
X149.613Y-114.258
X149.614Y-69.378
X149.614Y-70.648
X149.614Y-71.918
X149.614Y-73.188
X149.614Y-74.458
X156.114Y-109.188
X156.114Y-110.458
X156.114Y-111.728
X156.114Y-112.998
X156.114Y-114.268
X156.123Y-69.368
X156.123Y-70.638
X156.123Y-71.908
X156.123Y-73.178
X156.123Y-74.448
T2
X48.446Y-73.961
X51.446Y-73.961
X254.323Y-73.946
X257.323Y-73.946
T3
X56.883Y-135.812
X63.028Y-56.326
X63.028Y-73.326
X63.028Y-90.326
X65.435Y-129.824
X72.812Y-125.83
X73.468Y-56.326
X73.468Y-73.326
X73.468Y-90.326
X81.028Y-58.326
X81.028Y-75.326
X81.028Y-92.326
X82.457Y-121.834
X90.503Y-119.503
X91.468Y-58.326
X91.468Y-75.326
X91.468Y-92.326
X99.028Y-52.326
X99.028Y-69.326
X99.028Y-86.326
X100.785Y-117.69
X109.468Y-52.326
X109.468Y-69.326
X109.468Y-86.326
X117.028Y-59.326
X117.028Y-76.326
X117.028Y-93.326
X127.468Y-59.326
X127.468Y-76.326
X127.468Y-93.326
X135.028Y-70.326
X135.028Y-87.326
X135.028Y-104.326
X145.468Y-70.326
X145.468Y-87.326
X145.468Y-104.326
X160.257Y-70.327
X160.257Y-87.327
X160.257Y-104.327
X170.697Y-70.327
X170.697Y-87.327
X170.697Y-104.327
X178.257Y-59.327
X178.257Y-76.327
X178.257Y-93.327
X188.697Y-59.327
X188.697Y-76.327
X188.697Y-93.327
X196.257Y-52.327
X196.257Y-69.327
X196.257Y-86.327
X204.975Y-117.691
X206.697Y-52.327
X206.697Y-69.327
X206.697Y-86.327
X214.257Y-58.327
X214.257Y-75.327
X214.257Y-92.327
X215.256Y-119.504
X223.302Y-121.835
X224.697Y-58.327
X224.697Y-75.327
X224.697Y-92.327
X232.257Y-56.327
X232.257Y-73.327
X232.257Y-90.434
X232.948Y-125.831
X240.324Y-129.825
X242.697Y-56.327
X242.697Y-73.327
X242.697Y-90.434
X248.876Y-135.813
T4
X54.245Y-132.532
X62.748Y-60.526
X62.748Y-77.526
X62.748Y-94.526
X63.256Y-126.223
X70.946Y-122.056
X73.748Y-60.526
X73.748Y-77.526
X73.748Y-94.526
X80.748Y-62.526
X80.748Y-79.526
X80.748Y-96.526
X81.109Y-117.847
X89.498Y-115.415
X91.748Y-62.526
X91.748Y-79.526
X91.748Y-96.526
X98.748Y-56.526
X98.748Y-73.526
X98.748Y-90.526
X100.331Y-113.505
X109.748Y-56.526
X109.748Y-73.526
X109.748Y-90.526
X116.748Y-63.526
X116.748Y-80.526
X116.748Y-97.526
X127.748Y-63.526
X127.748Y-80.526
X127.748Y-97.526
X134.748Y-74.526
X134.748Y-91.526
X134.748Y-108.526
X145.748Y-74.526
X145.748Y-91.526
X145.748Y-108.526
X159.977Y-74.527
X159.977Y-91.527
X159.977Y-108.527
X170.977Y-74.527
X170.977Y-91.527
X170.977Y-108.527
X177.977Y-63.527
X177.977Y-80.527
X177.977Y-97.527
X188.977Y-63.527
X188.977Y-80.527
X188.977Y-97.527
X195.977Y-56.527
X195.977Y-73.527
X195.977Y-90.527
X205.429Y-113.506
X206.977Y-56.527
X206.977Y-73.527
X206.977Y-90.527
X213.977Y-62.527
X213.977Y-79.527
X213.977Y-96.527
X216.261Y-115.416
X224.651Y-117.848
X224.977Y-62.527
X224.977Y-79.527
X224.977Y-96.527
X231.977Y-60.527
X231.977Y-77.527
X231.977Y-94.634
X234.814Y-122.058
X242.504Y-126.224
X242.977Y-60.527
X242.977Y-77.527
X242.977Y-94.634
X251.515Y-132.533
T5
X58.75Y-129.378
X68.248Y-60.526
X68.248Y-77.526
X68.248Y-94.526
X76.027Y-119.952
X86.248Y-62.526
X86.248Y-79.526
X86.248Y-96.526
X94.915Y-114.46
X104.248Y-56.526
X104.248Y-73.526
X104.248Y-90.526
X122.248Y-63.526
X122.248Y-80.526
X122.248Y-97.526
X140.248Y-74.526
X140.248Y-91.526
X140.248Y-108.526
X165.477Y-74.527
X165.477Y-91.527
X165.477Y-108.527
X183.477Y-63.527
X183.477Y-80.527
X183.477Y-97.527
X201.477Y-56.527
X201.477Y-73.527
X201.477Y-90.527
X210.845Y-114.461
X219.477Y-62.527
X219.477Y-79.527
X219.477Y-96.527
X229.732Y-119.953
X237.477Y-60.527
X237.477Y-77.527
X237.477Y-94.634
X247.009Y-129.379
T0
M30
