%TF.GenerationSoftware,KiCad,Pcbnew,(6.0.4)*%
%TF.CreationDate,2022-09-24T19:54:14+02:00*%
%TF.ProjectId,MyKeeb,4d794b65-6562-42e6-9b69-6361645f7063,rev?*%
%TF.SameCoordinates,Original*%
%TF.FileFunction,Legend,Bot*%
%TF.FilePolarity,Positive*%
%FSLAX46Y46*%
G04 Gerber Fmt 4.6, Leading zero omitted, Abs format (unit mm)*
G04 Created by KiCad (PCBNEW (6.0.4)) date 2022-09-24 19:54:14*
%MOMM*%
%LPD*%
G01*
G04 APERTURE LIST*
%ADD10C,0.200000*%
G04 APERTURE END LIST*
D10*
X153570222Y-103401437D02*
X152713080Y-103401437D01*
X152541651Y-103458580D01*
X152427365Y-103572865D01*
X152370222Y-103744294D01*
X152370222Y-103858580D01*
X152370222Y-102258580D02*
X152370222Y-102830008D01*
X153570222Y-102830008D01*
X152484508Y-101172865D02*
X152427365Y-101230008D01*
X152370222Y-101401437D01*
X152370222Y-101515722D01*
X152427365Y-101687151D01*
X152541651Y-101801437D01*
X152655937Y-101858580D01*
X152884508Y-101915722D01*
X153055937Y-101915722D01*
X153284508Y-101858580D01*
X153398794Y-101801437D01*
X153513080Y-101687151D01*
X153570222Y-101515722D01*
X153570222Y-101401437D01*
X153513080Y-101230008D01*
X153455937Y-101172865D01*
X153570222Y-100315722D02*
X152713080Y-100315722D01*
X152541651Y-100372865D01*
X152427365Y-100487151D01*
X152370222Y-100658580D01*
X152370222Y-100772865D01*
X152370222Y-99172865D02*
X152370222Y-99744294D01*
X153570222Y-99744294D01*
X152484508Y-98087151D02*
X152427365Y-98144294D01*
X152370222Y-98315722D01*
X152370222Y-98430008D01*
X152427365Y-98601437D01*
X152541651Y-98715722D01*
X152655937Y-98772865D01*
X152884508Y-98830008D01*
X153055937Y-98830008D01*
X153284508Y-98772865D01*
X153398794Y-98715722D01*
X153513080Y-98601437D01*
X153570222Y-98430008D01*
X153570222Y-98315722D01*
X153513080Y-98144294D01*
X153455937Y-98087151D01*
X153570222Y-97230008D02*
X152713080Y-97230008D01*
X152541651Y-97287151D01*
X152427365Y-97401437D01*
X152370222Y-97572865D01*
X152370222Y-97687151D01*
X152370222Y-96087151D02*
X152370222Y-96658580D01*
X153570222Y-96658580D01*
X152484508Y-95001437D02*
X152427365Y-95058580D01*
X152370222Y-95230008D01*
X152370222Y-95344294D01*
X152427365Y-95515722D01*
X152541651Y-95630008D01*
X152655937Y-95687151D01*
X152884508Y-95744294D01*
X153055937Y-95744294D01*
X153284508Y-95687151D01*
X153398794Y-95630008D01*
X153513080Y-95515722D01*
X153570222Y-95344294D01*
X153570222Y-95230008D01*
X153513080Y-95058580D01*
X153455937Y-95001437D01*
X153570222Y-94144294D02*
X152713080Y-94144294D01*
X152541651Y-94201437D01*
X152427365Y-94315722D01*
X152370222Y-94487151D01*
X152370222Y-94601437D01*
X152370222Y-93001437D02*
X152370222Y-93572865D01*
X153570222Y-93572865D01*
X152484508Y-91915722D02*
X152427365Y-91972865D01*
X152370222Y-92144294D01*
X152370222Y-92258580D01*
X152427365Y-92430008D01*
X152541651Y-92544294D01*
X152655937Y-92601437D01*
X152884508Y-92658580D01*
X153055937Y-92658580D01*
X153284508Y-92601437D01*
X153398794Y-92544294D01*
X153513080Y-92430008D01*
X153570222Y-92258580D01*
X153570222Y-92144294D01*
X153513080Y-91972865D01*
X153455937Y-91915722D01*
M02*
